<svg xmlns="http://www.w3.org/2000/svg" width="1280" height="944" viewBox="0 0 1280 944">
<rect width="100%" height="100%" fill="#ffffff"/>
<text x="40" y="44" font-family="Arial, Microsoft YaHei, sans-serif" font-size="26" font-weight="700" fill="#172033">各组 sc 表数值成绩及格率</text>
<text x="40" y="74" font-family="Arial, Microsoft YaHei, sans-serif" font-size="15" fill="#64748b">及格率 = 数值成绩中 score &gt;= 60 的记录数 / 数值成绩记录数</text>
<line x1="150.0" y1="100" x2="150.0" y2="858" stroke="#d9e2ec" stroke-width="1"/>
<text x="150.0" y="886" text-anchor="middle" font-family="Arial, Microsoft YaHei, sans-serif" font-size="12" fill="#64748b">0.0%</text>
<line x1="352.0" y1="100" x2="352.0" y2="858" stroke="#d9e2ec" stroke-width="1"/>
<text x="352.0" y="886" text-anchor="middle" font-family="Arial, Microsoft YaHei, sans-serif" font-size="12" fill="#64748b">20.0%</text>
<line x1="554.0" y1="100" x2="554.0" y2="858" stroke="#d9e2ec" stroke-width="1"/>
<text x="554.0" y="886" text-anchor="middle" font-family="Arial, Microsoft YaHei, sans-serif" font-size="12" fill="#64748b">40.0%</text>
<line x1="756.0" y1="100" x2="756.0" y2="858" stroke="#d9e2ec" stroke-width="1"/>
<text x="756.0" y="886" text-anchor="middle" font-family="Arial, Microsoft YaHei, sans-serif" font-size="12" fill="#64748b">60.0%</text>
<line x1="958.0" y1="100" x2="958.0" y2="858" stroke="#d9e2ec" stroke-width="1"/>
<text x="958.0" y="886" text-anchor="middle" font-family="Arial, Microsoft YaHei, sans-serif" font-size="12" fill="#64748b">80.0%</text>
<line x1="1160.0" y1="100" x2="1160.0" y2="858" stroke="#d9e2ec" stroke-width="1"/>
<text x="1160.0" y="886" text-anchor="middle" font-family="Arial, Microsoft YaHei, sans-serif" font-size="12" fill="#64748b">100.0%</text>
<line x1="958.0" y1="88" x2="958.0" y2="858" stroke="#111827" stroke-width="2" stroke-dasharray="6 6"/>
<text x="966.0" y="82" font-family="Arial, Microsoft YaHei, sans-serif" font-size="13" fill="#111827">参考线 80%</text>
<text x="132" y="129" text-anchor="end" font-family="Arial, Microsoft YaHei, sans-serif" font-size="13" font-weight="400" fill="#172033">1组</text>
<rect x="150" y="114" width="1010.0" height="18" rx="3" fill="#7c3aed"/>
<text x="1168.0" y="129" font-family="Arial, Microsoft YaHei, sans-serif" font-size="13" font-weight="400" fill="#172033">100.0%</text>
<text x="132" y="159" text-anchor="end" font-family="Arial, Microsoft YaHei, sans-serif" font-size="13" font-weight="400" fill="#172033">2组</text>
<rect x="150" y="144" width="914.8" height="18" rx="3" fill="#7c3aed"/>
<text x="1072.8" y="159" font-family="Arial, Microsoft YaHei, sans-serif" font-size="13" font-weight="400" fill="#172033">90.6%</text>
<text x="132" y="189" text-anchor="end" font-family="Arial, Microsoft YaHei, sans-serif" font-size="13" font-weight="400" fill="#172033">3组</text>
<rect x="150" y="174" width="1010.0" height="18" rx="3" fill="#7c3aed"/>
<text x="1168.0" y="189" font-family="Arial, Microsoft YaHei, sans-serif" font-size="13" font-weight="400" fill="#172033">100.0%</text>
<text x="132" y="219" text-anchor="end" font-family="Arial, Microsoft YaHei, sans-serif" font-size="13" font-weight="400" fill="#172033">4组</text>
<rect x="150" y="204" width="1.0" height="18" rx="3" fill="#7c3aed"/>
<text x="159.0" y="219" font-family="Arial, Microsoft YaHei, sans-serif" font-size="13" font-weight="400" fill="#172033">0.0%</text>
<text x="132" y="249" text-anchor="end" font-family="Arial, Microsoft YaHei, sans-serif" font-size="13" font-weight="400" fill="#172033">5组</text>
<rect x="150" y="234" width="1.0" height="18" rx="3" fill="#7c3aed"/>
<text x="159.0" y="249" font-family="Arial, Microsoft YaHei, sans-serif" font-size="13" font-weight="400" fill="#172033">0.0%</text>
<text x="132" y="279" text-anchor="end" font-family="Arial, Microsoft YaHei, sans-serif" font-size="13" font-weight="400" fill="#172033">6组</text>
<rect x="150" y="264" width="812.0" height="18" rx="3" fill="#7c3aed"/>
<text x="970.0" y="279" font-family="Arial, Microsoft YaHei, sans-serif" font-size="13" font-weight="400" fill="#172033">80.4%</text>
<text x="132" y="309" text-anchor="end" font-family="Arial, Microsoft YaHei, sans-serif" font-size="13" font-weight="400" fill="#172033">7组</text>
<rect x="150" y="294" width="1010.0" height="18" rx="3" fill="#7c3aed"/>
<text x="1168.0" y="309" font-family="Arial, Microsoft YaHei, sans-serif" font-size="13" font-weight="400" fill="#172033">100.0%</text>
<text x="132" y="339" text-anchor="end" font-family="Arial, Microsoft YaHei, sans-serif" font-size="13" font-weight="400" fill="#172033">8组</text>
<rect x="150" y="324" width="1010.0" height="18" rx="3" fill="#7c3aed"/>
<text x="1168.0" y="339" font-family="Arial, Microsoft YaHei, sans-serif" font-size="13" font-weight="400" fill="#172033">100.0%</text>
<text x="132" y="369" text-anchor="end" font-family="Arial, Microsoft YaHei, sans-serif" font-size="13" font-weight="400" fill="#172033">9组</text>
<rect x="150" y="354" width="910.3" height="18" rx="3" fill="#7c3aed"/>
<text x="1068.3" y="369" font-family="Arial, Microsoft YaHei, sans-serif" font-size="13" font-weight="400" fill="#172033">90.1%</text>
<text x="132" y="399" text-anchor="end" font-family="Arial, Microsoft YaHei, sans-serif" font-size="13" font-weight="400" fill="#172033">10组</text>
<rect x="150" y="384" width="1010.0" height="18" rx="3" fill="#7c3aed"/>
<text x="1168.0" y="399" font-family="Arial, Microsoft YaHei, sans-serif" font-size="13" font-weight="400" fill="#172033">100.0%</text>
<text x="132" y="429" text-anchor="end" font-family="Arial, Microsoft YaHei, sans-serif" font-size="13" font-weight="400" fill="#172033">11组</text>
<rect x="150" y="414" width="1010.0" height="18" rx="3" fill="#7c3aed"/>
<text x="1168.0" y="429" font-family="Arial, Microsoft YaHei, sans-serif" font-size="13" font-weight="400" fill="#172033">100.0%</text>
<text x="132" y="459" text-anchor="end" font-family="Arial, Microsoft YaHei, sans-serif" font-size="13" font-weight="400" fill="#172033">12组</text>
<rect x="150" y="444" width="1.0" height="18" rx="3" fill="#7c3aed"/>
<text x="159.0" y="459" font-family="Arial, Microsoft YaHei, sans-serif" font-size="13" font-weight="400" fill="#172033">0.0%</text>
<text x="132" y="489" text-anchor="end" font-family="Arial, Microsoft YaHei, sans-serif" font-size="13" font-weight="400" fill="#172033">14组</text>
<rect x="150" y="474" width="1010.0" height="18" rx="3" fill="#7c3aed"/>
<text x="1168.0" y="489" font-family="Arial, Microsoft YaHei, sans-serif" font-size="13" font-weight="400" fill="#172033">100.0%</text>
<text x="132" y="519" text-anchor="end" font-family="Arial, Microsoft YaHei, sans-serif" font-size="13" font-weight="400" fill="#172033">15组</text>
<rect x="150" y="504" width="1010.0" height="18" rx="3" fill="#7c3aed"/>
<text x="1168.0" y="519" font-family="Arial, Microsoft YaHei, sans-serif" font-size="13" font-weight="400" fill="#172033">100.0%</text>
<text x="132" y="549" text-anchor="end" font-family="Arial, Microsoft YaHei, sans-serif" font-size="13" font-weight="400" fill="#172033">16组</text>
<rect x="150" y="534" width="336.7" height="18" rx="3" fill="#7c3aed"/>
<text x="494.7" y="549" font-family="Arial, Microsoft YaHei, sans-serif" font-size="13" font-weight="400" fill="#172033">33.3%</text>
<text x="132" y="579" text-anchor="end" font-family="Arial, Microsoft YaHei, sans-serif" font-size="13" font-weight="400" fill="#172033">17组</text>
<rect x="150" y="564" width="1010.0" height="18" rx="3" fill="#7c3aed"/>
<text x="1168.0" y="579" font-family="Arial, Microsoft YaHei, sans-serif" font-size="13" font-weight="400" fill="#172033">100.0%</text>
<text x="132" y="609" text-anchor="end" font-family="Arial, Microsoft YaHei, sans-serif" font-size="13" font-weight="700" fill="#172033">18组</text>
<rect x="150" y="594" width="1010.0" height="18" rx="3" fill="#dc2626"/>
<text x="1168.0" y="609" font-family="Arial, Microsoft YaHei, sans-serif" font-size="13" font-weight="700" fill="#172033">100.0%</text>
<text x="132" y="639" text-anchor="end" font-family="Arial, Microsoft YaHei, sans-serif" font-size="13" font-weight="400" fill="#172033">19组</text>
<rect x="150" y="624" width="1.0" height="18" rx="3" fill="#7c3aed"/>
<text x="159.0" y="639" font-family="Arial, Microsoft YaHei, sans-serif" font-size="13" font-weight="400" fill="#172033">0.0%</text>
<text x="132" y="669" text-anchor="end" font-family="Arial, Microsoft YaHei, sans-serif" font-size="13" font-weight="400" fill="#172033">20组</text>
<rect x="150" y="654" width="1.0" height="18" rx="3" fill="#7c3aed"/>
<text x="159.0" y="669" font-family="Arial, Microsoft YaHei, sans-serif" font-size="13" font-weight="400" fill="#172033">0.0%</text>
<text x="132" y="699" text-anchor="end" font-family="Arial, Microsoft YaHei, sans-serif" font-size="13" font-weight="400" fill="#172033">21组</text>
<rect x="150" y="684" width="1010.0" height="18" rx="3" fill="#7c3aed"/>
<text x="1168.0" y="699" font-family="Arial, Microsoft YaHei, sans-serif" font-size="13" font-weight="400" fill="#172033">100.0%</text>
<text x="132" y="729" text-anchor="end" font-family="Arial, Microsoft YaHei, sans-serif" font-size="13" font-weight="400" fill="#172033">22组</text>
<rect x="150" y="714" width="1.0" height="18" rx="3" fill="#7c3aed"/>
<text x="159.0" y="729" font-family="Arial, Microsoft YaHei, sans-serif" font-size="13" font-weight="400" fill="#172033">0.0%</text>
<text x="132" y="759" text-anchor="end" font-family="Arial, Microsoft YaHei, sans-serif" font-size="13" font-weight="400" fill="#172033">23组</text>
<rect x="150" y="744" width="1010.0" height="18" rx="3" fill="#7c3aed"/>
<text x="1168.0" y="759" font-family="Arial, Microsoft YaHei, sans-serif" font-size="13" font-weight="400" fill="#172033">100.0%</text>
<text x="132" y="789" text-anchor="end" font-family="Arial, Microsoft YaHei, sans-serif" font-size="13" font-weight="400" fill="#172033">25组</text>
<rect x="150" y="774" width="404.0" height="18" rx="3" fill="#7c3aed"/>
<text x="562.0" y="789" font-family="Arial, Microsoft YaHei, sans-serif" font-size="13" font-weight="400" fill="#172033">40.0%</text>
<text x="132" y="819" text-anchor="end" font-family="Arial, Microsoft YaHei, sans-serif" font-size="13" font-weight="400" fill="#172033">27组</text>
<rect x="150" y="804" width="1010.0" height="18" rx="3" fill="#7c3aed"/>
<text x="1168.0" y="819" font-family="Arial, Microsoft YaHei, sans-serif" font-size="13" font-weight="400" fill="#172033">100.0%</text>
<text x="132" y="849" text-anchor="end" font-family="Arial, Microsoft YaHei, sans-serif" font-size="13" font-weight="400" fill="#172033">28组</text>
<rect x="150" y="834" width="1.0" height="18" rx="3" fill="#7c3aed"/>
<text x="159.0" y="849" font-family="Arial, Microsoft YaHei, sans-serif" font-size="13" font-weight="400" fill="#172033">0.0%</text>
<text x="150" y="920" font-family="Arial, Microsoft YaHei, sans-serif" font-size="12" fill="#64748b">缺失/占位成绩不进入分母，后续分析应同步报告各组有效成绩比例。</text>
</svg>
