<svg xmlns="http://www.w3.org/2000/svg" width="1280" height="932" viewBox="0 0 1280 932">
<rect width="100%" height="100%" fill="#ffffff"/>
<text x="40" y="44" font-family="Arial, sans-serif" font-size="26" font-weight="700" fill="#172033">各组 student 表 A/B/C 院系分布</text>
<text x="40" y="74" font-family="Arial, sans-serif" font-size="15" fill="#64748b">堆叠条形图展示每组 A、B、C 三个院系的学生数据数量</text>
<rect x="40" y="90" width="14" height="14" rx="2" fill="#2563eb"/>
<text x="60" y="102" font-family="Arial, sans-serif" font-size="13" fill="#172033">院系 A</text>
<rect x="128" y="90" width="14" height="14" rx="2" fill="#16a34a"/>
<text x="148" y="102" font-family="Arial, sans-serif" font-size="13" fill="#172033">院系 B</text>
<rect x="216" y="90" width="14" height="14" rx="2" fill="#f59e0b"/>
<text x="236" y="102" font-family="Arial, sans-serif" font-size="13" fill="#172033">院系 C</text>
<line x1="120.0" y1="110" x2="120.0" y2="846" stroke="#d9e2ec" stroke-width="1"/>
<text x="120.0" y="874" text-anchor="middle" font-family="Arial, sans-serif" font-size="12" fill="#64748b">0</text>
<line x1="328.6" y1="110" x2="328.6" y2="846" stroke="#d9e2ec" stroke-width="1"/>
<text x="328.6" y="874" text-anchor="middle" font-family="Arial, sans-serif" font-size="12" fill="#64748b">75</text>
<line x1="537.1" y1="110" x2="537.1" y2="846" stroke="#d9e2ec" stroke-width="1"/>
<text x="537.1" y="874" text-anchor="middle" font-family="Arial, sans-serif" font-size="12" fill="#64748b">150</text>
<line x1="742.9" y1="110" x2="742.9" y2="846" stroke="#d9e2ec" stroke-width="1"/>
<text x="742.9" y="874" text-anchor="middle" font-family="Arial, sans-serif" font-size="12" fill="#64748b">224</text>
<line x1="951.4" y1="110" x2="951.4" y2="846" stroke="#d9e2ec" stroke-width="1"/>
<text x="951.4" y="874" text-anchor="middle" font-family="Arial, sans-serif" font-size="12" fill="#64748b">299</text>
<line x1="1160.0" y1="110" x2="1160.0" y2="846" stroke="#d9e2ec" stroke-width="1"/>
<text x="1160.0" y="874" text-anchor="middle" font-family="Arial, sans-serif" font-size="12" fill="#64748b">374</text>
<line x1="537.1" y1="98" x2="537.1" y2="846" stroke="#111827" stroke-width="2" stroke-dasharray="6 6"/>
<text x="545.1" y="92" font-family="Arial, sans-serif" font-size="13" fill="#111827">正常合计 150</text>
<text x="102" y="138" text-anchor="end" font-family="Arial, sans-serif" font-size="13" font-weight="400" fill="#172033">1组</text>
<rect x="120.0" y="123" width="139.0" height="18" rx="2" fill="#2563eb"/>
<text x="189.5" y="137" text-anchor="middle" font-family="Arial, sans-serif" font-size="11" font-weight="700" fill="#ffffff">50</text>
<rect x="259.0" y="123" width="139.0" height="18" rx="2" fill="#16a34a"/>
<text x="328.6" y="137" text-anchor="middle" font-family="Arial, sans-serif" font-size="11" font-weight="700" fill="#ffffff">50</text>
<rect x="398.1" y="123" width="139.0" height="18" rx="2" fill="#f59e0b"/>
<text x="467.6" y="137" text-anchor="middle" font-family="Arial, sans-serif" font-size="11" font-weight="700" fill="#ffffff">50</text>
<text x="545.1" y="138" font-family="Arial, sans-serif" font-size="13" font-weight="400" fill="#172033">150</text>
<text x="102" y="166" text-anchor="end" font-family="Arial, sans-serif" font-size="13" font-weight="400" fill="#172033">2组</text>
<rect x="120.0" y="151" width="350.4" height="18" rx="2" fill="#2563eb"/>
<text x="295.2" y="165" text-anchor="middle" font-family="Arial, sans-serif" font-size="11" font-weight="700" fill="#ffffff">126</text>
<rect x="470.4" y="151" width="347.6" height="18" rx="2" fill="#16a34a"/>
<text x="644.2" y="165" text-anchor="middle" font-family="Arial, sans-serif" font-size="11" font-weight="700" fill="#ffffff">125</text>
<rect x="818.0" y="151" width="342.0" height="18" rx="2" fill="#f59e0b"/>
<text x="989.0" y="165" text-anchor="middle" font-family="Arial, sans-serif" font-size="11" font-weight="700" fill="#ffffff">123</text>
<text x="1168.0" y="166" font-family="Arial, sans-serif" font-size="13" font-weight="400" fill="#172033">374</text>
<text x="102" y="194" text-anchor="end" font-family="Arial, sans-serif" font-size="13" font-weight="400" fill="#172033">3组</text>
<rect x="120.0" y="179" width="139.0" height="18" rx="2" fill="#2563eb"/>
<text x="189.5" y="193" text-anchor="middle" font-family="Arial, sans-serif" font-size="11" font-weight="700" fill="#ffffff">50</text>
<rect x="259.0" y="179" width="139.0" height="18" rx="2" fill="#16a34a"/>
<text x="328.6" y="193" text-anchor="middle" font-family="Arial, sans-serif" font-size="11" font-weight="700" fill="#ffffff">50</text>
<rect x="398.1" y="179" width="141.8" height="18" rx="2" fill="#f59e0b"/>
<text x="469.0" y="193" text-anchor="middle" font-family="Arial, sans-serif" font-size="11" font-weight="700" fill="#ffffff">51</text>
<text x="547.9" y="194" font-family="Arial, sans-serif" font-size="13" font-weight="400" fill="#172033">151</text>
<text x="102" y="222" text-anchor="end" font-family="Arial, sans-serif" font-size="13" font-weight="400" fill="#172033">4组</text>
<rect x="120.0" y="207" width="139.0" height="18" rx="2" fill="#2563eb"/>
<text x="189.5" y="221" text-anchor="middle" font-family="Arial, sans-serif" font-size="11" font-weight="700" fill="#ffffff">50</text>
<rect x="259.0" y="207" width="139.0" height="18" rx="2" fill="#16a34a"/>
<text x="328.6" y="221" text-anchor="middle" font-family="Arial, sans-serif" font-size="11" font-weight="700" fill="#ffffff">50</text>
<rect x="398.1" y="207" width="139.0" height="18" rx="2" fill="#f59e0b"/>
<text x="467.6" y="221" text-anchor="middle" font-family="Arial, sans-serif" font-size="11" font-weight="700" fill="#ffffff">50</text>
<text x="545.1" y="222" font-family="Arial, sans-serif" font-size="13" font-weight="400" fill="#172033">150</text>
<text x="102" y="250" text-anchor="end" font-family="Arial, sans-serif" font-size="13" font-weight="400" fill="#172033">5组</text>
<rect x="120.0" y="235" width="139.0" height="18" rx="2" fill="#2563eb"/>
<text x="189.5" y="249" text-anchor="middle" font-family="Arial, sans-serif" font-size="11" font-weight="700" fill="#ffffff">50</text>
<rect x="259.0" y="235" width="139.0" height="18" rx="2" fill="#16a34a"/>
<text x="328.6" y="249" text-anchor="middle" font-family="Arial, sans-serif" font-size="11" font-weight="700" fill="#ffffff">50</text>
<rect x="398.1" y="235" width="139.0" height="18" rx="2" fill="#f59e0b"/>
<text x="467.6" y="249" text-anchor="middle" font-family="Arial, sans-serif" font-size="11" font-weight="700" fill="#ffffff">50</text>
<text x="545.1" y="250" font-family="Arial, sans-serif" font-size="13" font-weight="400" fill="#172033">150</text>
<text x="102" y="278" text-anchor="end" font-family="Arial, sans-serif" font-size="13" font-weight="400" fill="#172033">6组</text>
<rect x="120.0" y="263" width="139.0" height="18" rx="2" fill="#2563eb"/>
<text x="189.5" y="277" text-anchor="middle" font-family="Arial, sans-serif" font-size="11" font-weight="700" fill="#ffffff">50</text>
<rect x="259.0" y="263" width="139.0" height="18" rx="2" fill="#16a34a"/>
<text x="328.6" y="277" text-anchor="middle" font-family="Arial, sans-serif" font-size="11" font-weight="700" fill="#ffffff">50</text>
<rect x="398.1" y="263" width="139.0" height="18" rx="2" fill="#f59e0b"/>
<text x="467.6" y="277" text-anchor="middle" font-family="Arial, sans-serif" font-size="11" font-weight="700" fill="#ffffff">50</text>
<text x="545.1" y="278" font-family="Arial, sans-serif" font-size="13" font-weight="400" fill="#172033">150</text>
<text x="102" y="306" text-anchor="end" font-family="Arial, sans-serif" font-size="13" font-weight="400" fill="#172033">7组</text>
<rect x="120.0" y="291" width="278.1" height="18" rx="2" fill="#2563eb"/>
<text x="259.0" y="305" text-anchor="middle" font-family="Arial, sans-serif" font-size="11" font-weight="700" fill="#ffffff">100</text>
<rect x="398.1" y="291" width="102.9" height="18" rx="2" fill="#16a34a"/>
<text x="449.5" y="305" text-anchor="middle" font-family="Arial, sans-serif" font-size="11" font-weight="700" fill="#ffffff">37</text>
<rect x="501.0" y="291" width="36.1" height="18" rx="2" fill="#f59e0b"/>
<text x="519.0" y="305" text-anchor="middle" font-family="Arial, sans-serif" font-size="11" font-weight="700" fill="#ffffff">13</text>
<text x="545.1" y="306" font-family="Arial, sans-serif" font-size="13" font-weight="400" fill="#172033">150</text>
<text x="102" y="334" text-anchor="end" font-family="Arial, sans-serif" font-size="13" font-weight="400" fill="#172033">8组</text>
<rect x="120.0" y="319" width="139.0" height="18" rx="2" fill="#2563eb"/>
<text x="189.5" y="333" text-anchor="middle" font-family="Arial, sans-serif" font-size="11" font-weight="700" fill="#ffffff">50</text>
<rect x="259.0" y="319" width="139.0" height="18" rx="2" fill="#16a34a"/>
<text x="328.6" y="333" text-anchor="middle" font-family="Arial, sans-serif" font-size="11" font-weight="700" fill="#ffffff">50</text>
<rect x="398.1" y="319" width="139.0" height="18" rx="2" fill="#f59e0b"/>
<text x="467.6" y="333" text-anchor="middle" font-family="Arial, sans-serif" font-size="11" font-weight="700" fill="#ffffff">50</text>
<text x="545.1" y="334" font-family="Arial, sans-serif" font-size="13" font-weight="400" fill="#172033">150</text>
<text x="102" y="362" text-anchor="end" font-family="Arial, sans-serif" font-size="13" font-weight="400" fill="#172033">9组</text>
<rect x="120.0" y="347" width="139.0" height="18" rx="2" fill="#2563eb"/>
<text x="189.5" y="361" text-anchor="middle" font-family="Arial, sans-serif" font-size="11" font-weight="700" fill="#ffffff">50</text>
<rect x="259.0" y="347" width="139.0" height="18" rx="2" fill="#16a34a"/>
<text x="328.6" y="361" text-anchor="middle" font-family="Arial, sans-serif" font-size="11" font-weight="700" fill="#ffffff">50</text>
<rect x="398.1" y="347" width="139.0" height="18" rx="2" fill="#f59e0b"/>
<text x="467.6" y="361" text-anchor="middle" font-family="Arial, sans-serif" font-size="11" font-weight="700" fill="#ffffff">50</text>
<text x="545.1" y="362" font-family="Arial, sans-serif" font-size="13" font-weight="400" fill="#172033">150</text>
<text x="102" y="390" text-anchor="end" font-family="Arial, sans-serif" font-size="13" font-weight="400" fill="#172033">10组</text>
<rect x="120.0" y="375" width="139.0" height="18" rx="2" fill="#2563eb"/>
<text x="189.5" y="389" text-anchor="middle" font-family="Arial, sans-serif" font-size="11" font-weight="700" fill="#ffffff">50</text>
<rect x="259.0" y="375" width="139.0" height="18" rx="2" fill="#16a34a"/>
<text x="328.6" y="389" text-anchor="middle" font-family="Arial, sans-serif" font-size="11" font-weight="700" fill="#ffffff">50</text>
<rect x="398.1" y="375" width="139.0" height="18" rx="2" fill="#f59e0b"/>
<text x="467.6" y="389" text-anchor="middle" font-family="Arial, sans-serif" font-size="11" font-weight="700" fill="#ffffff">50</text>
<text x="545.1" y="390" font-family="Arial, sans-serif" font-size="13" font-weight="400" fill="#172033">150</text>
<text x="102" y="418" text-anchor="end" font-family="Arial, sans-serif" font-size="13" font-weight="400" fill="#172033">11组</text>
<rect x="120.0" y="403" width="139.0" height="18" rx="2" fill="#2563eb"/>
<text x="189.5" y="417" text-anchor="middle" font-family="Arial, sans-serif" font-size="11" font-weight="700" fill="#ffffff">50</text>
<rect x="259.0" y="403" width="139.0" height="18" rx="2" fill="#16a34a"/>
<text x="328.6" y="417" text-anchor="middle" font-family="Arial, sans-serif" font-size="11" font-weight="700" fill="#ffffff">50</text>
<rect x="398.1" y="403" width="139.0" height="18" rx="2" fill="#f59e0b"/>
<text x="467.6" y="417" text-anchor="middle" font-family="Arial, sans-serif" font-size="11" font-weight="700" fill="#ffffff">50</text>
<text x="545.1" y="418" font-family="Arial, sans-serif" font-size="13" font-weight="400" fill="#172033">150</text>
<text x="102" y="446" text-anchor="end" font-family="Arial, sans-serif" font-size="13" font-weight="400" fill="#172033">12组</text>
<rect x="120.0" y="431" width="139.0" height="18" rx="2" fill="#2563eb"/>
<text x="189.5" y="445" text-anchor="middle" font-family="Arial, sans-serif" font-size="11" font-weight="700" fill="#ffffff">50</text>
<rect x="259.0" y="431" width="139.0" height="18" rx="2" fill="#16a34a"/>
<text x="328.6" y="445" text-anchor="middle" font-family="Arial, sans-serif" font-size="11" font-weight="700" fill="#ffffff">50</text>
<rect x="398.1" y="431" width="139.0" height="18" rx="2" fill="#f59e0b"/>
<text x="467.6" y="445" text-anchor="middle" font-family="Arial, sans-serif" font-size="11" font-weight="700" fill="#ffffff">50</text>
<text x="545.1" y="446" font-family="Arial, sans-serif" font-size="13" font-weight="400" fill="#172033">150</text>
<text x="102" y="474" text-anchor="end" font-family="Arial, sans-serif" font-size="13" font-weight="400" fill="#172033">14组</text>
<rect x="120.0" y="459" width="139.0" height="18" rx="2" fill="#2563eb"/>
<text x="189.5" y="473" text-anchor="middle" font-family="Arial, sans-serif" font-size="11" font-weight="700" fill="#ffffff">50</text>
<rect x="259.0" y="459" width="139.0" height="18" rx="2" fill="#16a34a"/>
<text x="328.6" y="473" text-anchor="middle" font-family="Arial, sans-serif" font-size="11" font-weight="700" fill="#ffffff">50</text>
<rect x="398.1" y="459" width="139.0" height="18" rx="2" fill="#f59e0b"/>
<text x="467.6" y="473" text-anchor="middle" font-family="Arial, sans-serif" font-size="11" font-weight="700" fill="#ffffff">50</text>
<text x="545.1" y="474" font-family="Arial, sans-serif" font-size="13" font-weight="400" fill="#172033">150</text>
<text x="102" y="502" text-anchor="end" font-family="Arial, sans-serif" font-size="13" font-weight="400" fill="#172033">15组</text>
<rect x="120.0" y="487" width="139.0" height="18" rx="2" fill="#2563eb"/>
<text x="189.5" y="501" text-anchor="middle" font-family="Arial, sans-serif" font-size="11" font-weight="700" fill="#ffffff">50</text>
<rect x="259.0" y="487" width="139.0" height="18" rx="2" fill="#16a34a"/>
<text x="328.6" y="501" text-anchor="middle" font-family="Arial, sans-serif" font-size="11" font-weight="700" fill="#ffffff">50</text>
<rect x="398.1" y="487" width="139.0" height="18" rx="2" fill="#f59e0b"/>
<text x="467.6" y="501" text-anchor="middle" font-family="Arial, sans-serif" font-size="11" font-weight="700" fill="#ffffff">50</text>
<text x="545.1" y="502" font-family="Arial, sans-serif" font-size="13" font-weight="400" fill="#172033">150</text>
<text x="102" y="530" text-anchor="end" font-family="Arial, sans-serif" font-size="13" font-weight="400" fill="#172033">16组</text>
<rect x="120.0" y="515" width="139.0" height="18" rx="2" fill="#2563eb"/>
<text x="189.5" y="529" text-anchor="middle" font-family="Arial, sans-serif" font-size="11" font-weight="700" fill="#ffffff">50</text>
<rect x="259.0" y="515" width="139.0" height="18" rx="2" fill="#16a34a"/>
<text x="328.6" y="529" text-anchor="middle" font-family="Arial, sans-serif" font-size="11" font-weight="700" fill="#ffffff">50</text>
<rect x="398.1" y="515" width="139.0" height="18" rx="2" fill="#f59e0b"/>
<text x="467.6" y="529" text-anchor="middle" font-family="Arial, sans-serif" font-size="11" font-weight="700" fill="#ffffff">50</text>
<text x="545.1" y="530" font-family="Arial, sans-serif" font-size="13" font-weight="400" fill="#172033">150</text>
<text x="102" y="558" text-anchor="end" font-family="Arial, sans-serif" font-size="13" font-weight="400" fill="#172033">17组</text>
<rect x="120.0" y="543" width="139.0" height="18" rx="2" fill="#2563eb"/>
<text x="189.5" y="557" text-anchor="middle" font-family="Arial, sans-serif" font-size="11" font-weight="700" fill="#ffffff">50</text>
<rect x="259.0" y="543" width="139.0" height="18" rx="2" fill="#16a34a"/>
<text x="328.6" y="557" text-anchor="middle" font-family="Arial, sans-serif" font-size="11" font-weight="700" fill="#ffffff">50</text>
<rect x="398.1" y="543" width="139.0" height="18" rx="2" fill="#f59e0b"/>
<text x="467.6" y="557" text-anchor="middle" font-family="Arial, sans-serif" font-size="11" font-weight="700" fill="#ffffff">50</text>
<text x="545.1" y="558" font-family="Arial, sans-serif" font-size="13" font-weight="400" fill="#172033">150</text>
<text x="102" y="586" text-anchor="end" font-family="Arial, sans-serif" font-size="13" font-weight="700" fill="#172033">18组</text>
<rect x="120.0" y="571" width="139.0" height="18" rx="2" fill="#2563eb"/>
<text x="189.5" y="585" text-anchor="middle" font-family="Arial, sans-serif" font-size="11" font-weight="700" fill="#ffffff">50</text>
<rect x="259.0" y="571" width="139.0" height="18" rx="2" fill="#16a34a"/>
<text x="328.6" y="585" text-anchor="middle" font-family="Arial, sans-serif" font-size="11" font-weight="700" fill="#ffffff">50</text>
<rect x="398.1" y="571" width="139.0" height="18" rx="2" fill="#f59e0b"/>
<text x="467.6" y="585" text-anchor="middle" font-family="Arial, sans-serif" font-size="11" font-weight="700" fill="#ffffff">50</text>
<text x="545.1" y="586" font-family="Arial, sans-serif" font-size="13" font-weight="700" fill="#172033">150</text>
<rect x="116" y="568" width="1048" height="24" fill="none" stroke="#dc2626" stroke-width="2" rx="4"/>
<text x="102" y="614" text-anchor="end" font-family="Arial, sans-serif" font-size="13" font-weight="400" fill="#172033">19组</text>
<rect x="120.0" y="599" width="139.0" height="18" rx="2" fill="#2563eb"/>
<text x="189.5" y="613" text-anchor="middle" font-family="Arial, sans-serif" font-size="11" font-weight="700" fill="#ffffff">50</text>
<rect x="259.0" y="599" width="139.0" height="18" rx="2" fill="#16a34a"/>
<text x="328.6" y="613" text-anchor="middle" font-family="Arial, sans-serif" font-size="11" font-weight="700" fill="#ffffff">50</text>
<rect x="398.1" y="599" width="139.0" height="18" rx="2" fill="#f59e0b"/>
<text x="467.6" y="613" text-anchor="middle" font-family="Arial, sans-serif" font-size="11" font-weight="700" fill="#ffffff">50</text>
<text x="545.1" y="614" font-family="Arial, sans-serif" font-size="13" font-weight="400" fill="#172033">150</text>
<text x="102" y="642" text-anchor="end" font-family="Arial, sans-serif" font-size="13" font-weight="400" fill="#172033">20组</text>
<rect x="120.0" y="627" width="139.0" height="18" rx="2" fill="#2563eb"/>
<text x="189.5" y="641" text-anchor="middle" font-family="Arial, sans-serif" font-size="11" font-weight="700" fill="#ffffff">50</text>
<rect x="259.0" y="627" width="139.0" height="18" rx="2" fill="#16a34a"/>
<text x="328.6" y="641" text-anchor="middle" font-family="Arial, sans-serif" font-size="11" font-weight="700" fill="#ffffff">50</text>
<rect x="398.1" y="627" width="139.0" height="18" rx="2" fill="#f59e0b"/>
<text x="467.6" y="641" text-anchor="middle" font-family="Arial, sans-serif" font-size="11" font-weight="700" fill="#ffffff">50</text>
<text x="545.1" y="642" font-family="Arial, sans-serif" font-size="13" font-weight="400" fill="#172033">150</text>
<text x="102" y="670" text-anchor="end" font-family="Arial, sans-serif" font-size="13" font-weight="400" fill="#172033">21组</text>
<rect x="120.0" y="655" width="139.0" height="18" rx="2" fill="#2563eb"/>
<text x="189.5" y="669" text-anchor="middle" font-family="Arial, sans-serif" font-size="11" font-weight="700" fill="#ffffff">50</text>
<rect x="259.0" y="655" width="139.0" height="18" rx="2" fill="#16a34a"/>
<text x="328.6" y="669" text-anchor="middle" font-family="Arial, sans-serif" font-size="11" font-weight="700" fill="#ffffff">50</text>
<rect x="398.1" y="655" width="139.0" height="18" rx="2" fill="#f59e0b"/>
<text x="467.6" y="669" text-anchor="middle" font-family="Arial, sans-serif" font-size="11" font-weight="700" fill="#ffffff">50</text>
<text x="545.1" y="670" font-family="Arial, sans-serif" font-size="13" font-weight="400" fill="#172033">150</text>
<text x="102" y="698" text-anchor="end" font-family="Arial, sans-serif" font-size="13" font-weight="400" fill="#172033">22组</text>
<rect x="120.0" y="683" width="141.8" height="18" rx="2" fill="#2563eb"/>
<text x="190.9" y="697" text-anchor="middle" font-family="Arial, sans-serif" font-size="11" font-weight="700" fill="#ffffff">51</text>
<rect x="261.8" y="683" width="141.8" height="18" rx="2" fill="#16a34a"/>
<text x="332.7" y="697" text-anchor="middle" font-family="Arial, sans-serif" font-size="11" font-weight="700" fill="#ffffff">51</text>
<rect x="403.6" y="683" width="141.8" height="18" rx="2" fill="#f59e0b"/>
<text x="474.5" y="697" text-anchor="middle" font-family="Arial, sans-serif" font-size="11" font-weight="700" fill="#ffffff">51</text>
<text x="553.5" y="698" font-family="Arial, sans-serif" font-size="13" font-weight="400" fill="#172033">153</text>
<text x="102" y="726" text-anchor="end" font-family="Arial, sans-serif" font-size="13" font-weight="400" fill="#172033">23组</text>
<rect x="120.0" y="711" width="139.0" height="18" rx="2" fill="#2563eb"/>
<text x="189.5" y="725" text-anchor="middle" font-family="Arial, sans-serif" font-size="11" font-weight="700" fill="#ffffff">50</text>
<rect x="259.0" y="711" width="139.0" height="18" rx="2" fill="#16a34a"/>
<text x="328.6" y="725" text-anchor="middle" font-family="Arial, sans-serif" font-size="11" font-weight="700" fill="#ffffff">50</text>
<rect x="398.1" y="711" width="139.0" height="18" rx="2" fill="#f59e0b"/>
<text x="467.6" y="725" text-anchor="middle" font-family="Arial, sans-serif" font-size="11" font-weight="700" fill="#ffffff">50</text>
<text x="545.1" y="726" font-family="Arial, sans-serif" font-size="13" font-weight="400" fill="#172033">150</text>
<text x="102" y="754" text-anchor="end" font-family="Arial, sans-serif" font-size="13" font-weight="400" fill="#172033">25组</text>
<rect x="120.0" y="739" width="139.0" height="18" rx="2" fill="#16a34a"/>
<text x="189.5" y="753" text-anchor="middle" font-family="Arial, sans-serif" font-size="11" font-weight="700" fill="#ffffff">50</text>
<rect x="259.0" y="739" width="139.0" height="18" rx="2" fill="#f59e0b"/>
<text x="328.6" y="753" text-anchor="middle" font-family="Arial, sans-serif" font-size="11" font-weight="700" fill="#ffffff">50</text>
<text x="406.1" y="754" font-family="Arial, sans-serif" font-size="13" font-weight="400" fill="#172033">100</text>
<text x="102" y="782" text-anchor="end" font-family="Arial, sans-serif" font-size="13" font-weight="400" fill="#172033">27组</text>
<rect x="120.0" y="767" width="139.0" height="18" rx="2" fill="#2563eb"/>
<text x="189.5" y="781" text-anchor="middle" font-family="Arial, sans-serif" font-size="11" font-weight="700" fill="#ffffff">50</text>
<rect x="259.0" y="767" width="139.0" height="18" rx="2" fill="#16a34a"/>
<text x="328.6" y="781" text-anchor="middle" font-family="Arial, sans-serif" font-size="11" font-weight="700" fill="#ffffff">50</text>
<rect x="398.1" y="767" width="139.0" height="18" rx="2" fill="#f59e0b"/>
<text x="467.6" y="781" text-anchor="middle" font-family="Arial, sans-serif" font-size="11" font-weight="700" fill="#ffffff">50</text>
<text x="545.1" y="782" font-family="Arial, sans-serif" font-size="13" font-weight="400" fill="#172033">150</text>
<text x="102" y="810" text-anchor="end" font-family="Arial, sans-serif" font-size="13" font-weight="400" fill="#172033">28组</text>
<rect x="120.0" y="795" width="139.0" height="18" rx="2" fill="#2563eb"/>
<text x="189.5" y="809" text-anchor="middle" font-family="Arial, sans-serif" font-size="11" font-weight="700" fill="#ffffff">50</text>
<rect x="259.0" y="795" width="139.0" height="18" rx="2" fill="#16a34a"/>
<text x="328.6" y="809" text-anchor="middle" font-family="Arial, sans-serif" font-size="11" font-weight="700" fill="#ffffff">50</text>
<rect x="398.1" y="795" width="139.0" height="18" rx="2" fill="#f59e0b"/>
<text x="467.6" y="809" text-anchor="middle" font-family="Arial, sans-serif" font-size="11" font-weight="700" fill="#ffffff">50</text>
<text x="545.1" y="810" font-family="Arial, sans-serif" font-size="13" font-weight="400" fill="#172033">150</text>
<text x="102" y="838" text-anchor="end" font-family="Arial, sans-serif" font-size="13" font-weight="400" fill="#172033">221250099组</text>
<rect x="120.0" y="823" width="2.8" height="18" rx="2" fill="#f59e0b"/>
<text x="130.8" y="838" font-family="Arial, sans-serif" font-size="13" font-weight="400" fill="#172033">1</text>
<text x="120" y="908" font-family="Arial, sans-serif" font-size="12" fill="#64748b">18 组为 A/B/C 各 50 名学生，结构符合标准提交规模。</text>
</svg>
